<svg width="720" height="1040" xmlns="http://www.w3.org/2000/svg" xmlns:xlink="http://www.w3.org/1999/xlink" overflow="hidden"><g><rect x="0" y="0" width="720" height="1040" fill="#FFFFFF"/><path d="M0 7.25012 434.5 7.25012 434.5 0 449 14.5002 434.5 29 434.5 21.7499 0 21.7499Z" stroke="#9DC3E6" stroke-width="1.33333" stroke-miterlimit="8" fill="#9DC3E6" fill-rule="evenodd" transform="matrix(-6.12323e-17 -1 -1 6.12323e-17 116.5 560.5)"/><rect x="542" y="89" width="164" height="42" fill="#FFC000"/><text font-family="Calibri,Calibri_MSFontService,sans-serif" font-weight="400" font-size="13.3333" transform="translate(551.828 106)">Distribution</text><path d="M551.828 107.195 583.828 107.195 615.828 107.195 615.828 108.195 583.828 108.195 551.828 108.195Z" fill-rule="evenodd"/><text font-family="Arial,Arial_MSFontService,sans-serif" font-weight="400" font-size="13.3333" transform="translate(551.828 122)">•</text><text font-family="Calibri,Calibri_MSFontService,sans-serif" font-weight="400" font-size="13.3333" transform="translate(569.828 122)">Density distribution</text><rect x="17" y="165" width="163" height="59" fill="#C00000"/><text fill="#FFFFFF" font-family="Calibri,Calibri_MSFontService,sans-serif" font-weight="400" font-size="13.3333" transform="translate(26.9029 182)">OWF Characteristics</text><path d="M26.9029 183.255 54.1529 183.255 81.4029 183.255 108.653 183.255 135.903 183.255 135.903 184.255 108.653 184.255 81.4029 184.255 54.1529 184.255 26.9029 184.255Z" fill="#FFFFFF" fill-rule="evenodd"/><text fill="#FFFFFF" font-family="Arial,Arial_MSFontService,sans-serif" font-weight="400" font-size="13.3333" transform="translate(26.9029 198)">•</text><text fill="#FFFFFF" font-family="Calibri,Calibri_MSFontService,sans-serif" font-weight="400" font-size="13.3333" transform="translate(44.9029 198)">Footprint</text><text fill="#FFFFFF" font-family="Arial,Arial_MSFontService,sans-serif" font-weight="400" font-size="13.3333" transform="translate(26.9029 214)">•</text><text fill="#FFFFFF" font-family="Calibri,Calibri_MSFontService,sans-serif" font-weight="400" font-size="13.3333" transform="translate(44.9029 214)">Turbine height</text><rect x="231" y="166" width="241" height="42" fill="#9DC3E6"/><text font-family="Calibri,Calibri_MSFontService,sans-serif" font-weight="400" font-size="13.3333" transform="translate(253.413 182)">Revised location of individual agents</text><text font-family="Calibri,Calibri_MSFontService,sans-serif" font-weight="400" font-size="13.3333" transform="translate(300.746 198)">after displacement</text><rect x="542" y="143" width="163" height="91" stroke="#C00000" stroke-width="3.66667" stroke-linejoin="round" stroke-miterlimit="10" fill="#FFC000"/><text font-family="Calibri,Calibri_MSFontService,sans-serif" font-weight="400" font-size="13.3333" transform="translate(551.529 160)">Redistribution</text><path d="M551.529 161.129 577.195 161.129 602.862 161.129 628.529 161.129 628.529 162.129 602.862 162.129 577.195 162.129 551.529 162.129Z" fill-rule="evenodd"/><text font-family="Arial,Arial_MSFontService,sans-serif" font-weight="400" font-size="13.3333" transform="translate(551.529 176)">•</text><text font-family="Calibri,Calibri_MSFontService,sans-serif" font-weight="400" font-size="13.3333" transform="translate(569.529 176)">Displacement rates</text><text font-family="Arial,Arial_MSFontService,sans-serif" font-weight="400" font-size="13.3333" transform="translate(551.529 192)">•</text><text font-family="Calibri,Calibri_MSFontService,sans-serif" font-weight="400" font-size="13.3333" transform="translate(569.529 192)">Attraction</text><text font-family="Arial,Arial_MSFontService,sans-serif" font-weight="400" font-size="13.3333" transform="translate(551.529 208)">•</text><text font-family="Calibri,Calibri_MSFontService,sans-serif" font-weight="400" font-size="13.3333" transform="translate(569.529 208)">Redistribution</text><text font-family="Calibri,Calibri_MSFontService,sans-serif" font-weight="400" font-size="13.3333" transform="translate(569.529 224)">characteristics</text><rect x="231.5" y="293.5" width="241" height="58" stroke="#9DC3E6" stroke-linejoin="round" stroke-miterlimit="10" fill="#9DC3E6"/><text font-family="Calibri,Calibri_MSFontService,sans-serif" font-weight="400" font-size="13.3333" transform="translate(245.991 309)">Revised foraging success rate of agents</text><text font-family="Calibri,Calibri_MSFontService,sans-serif" font-weight="400" font-size="13.3333" transform="translate(251.738 325)">based on revised density distribution</text><text font-family="Calibri,Calibri_MSFontService,sans-serif" font-weight="400" font-size="13.3333" transform="translate(287.238 341)">following displacement</text><rect x="543" y="295" width="163" height="58" stroke="#C00000" stroke-width="3.66667" stroke-linejoin="round" stroke-miterlimit="10" fill="#FFC000"/><text font-family="Calibri,Calibri_MSFontService,sans-serif" font-weight="400" font-size="13.3333" transform="translate(552.263 312)">Foraging</text><path d="M552.263 312.527 575.763 312.527 599.263 312.527 599.263 313.527 575.763 313.527 552.263 313.527Z" fill-rule="evenodd"/><text font-family="Arial,Arial_MSFontService,sans-serif" font-weight="400" font-size="13.3333" transform="translate(552.263 328)">•</text><text font-family="Calibri,Calibri_MSFontService,sans-serif" font-weight="400" font-size="13.3333" transform="translate(570.263 328)">Success rate</text><text font-family="Arial,Arial_MSFontService,sans-serif" font-weight="400" font-size="13.3333" transform="translate(552.263 344)">•</text><text font-family="Calibri,Calibri_MSFontService,sans-serif" font-weight="400" font-size="13.3333" transform="translate(570.263 344)">Conspecific influence</text><rect x="233" y="435" width="240" height="75" fill="#9DC3E6"/><text font-family="Calibri,Calibri_MSFontService,sans-serif" font-weight="400" font-size="13.3333" transform="translate(258.758 452)">Optimisation of agent time</text><text font-family="Calibri,Calibri_MSFontService,sans-serif" font-weight="400" font-size="13.3333" transform="translate(404.424 452)">-</text><text font-family="Calibri,Calibri_MSFontService,sans-serif" font-weight="400" font-size="13.3333" transform="translate(408.424 452)">activity</text><text font-family="Calibri,Calibri_MSFontService,sans-serif" font-weight="400" font-size="13.3333" transform="translate(255.924 468)">budgets to maintain energy balance</text><text font-family="Calibri,Calibri_MSFontService,sans-serif" font-weight="400" font-size="13.3333" transform="translate(258.338 484)">under constraints (e.g., day</text><text font-family="Calibri,Calibri_MSFontService,sans-serif" font-weight="400" font-size="13.3333" transform="translate(406.004 484)">-</text><text font-family="Calibri,Calibri_MSFontService,sans-serif" font-weight="400" font-size="13.3333" transform="translate(410.004 484)">length,</text><text font-family="Calibri,Calibri_MSFontService,sans-serif" font-weight="400" font-size="13.3333" transform="translate(310.258 500)">energetic costs)</text><path d="M187.5 188.75 202 188.75 202 181.5 216.5 196 202 210.5 202 203.25 187.5 203.25Z" stroke="#C00000" stroke-width="1.33333" stroke-miterlimit="8" fill="#C00000" fill-rule="evenodd"/><path d="M533.5 194.25 519 194.25 519 201.5 504.5 187 519 172.5 519 179.75 533.5 179.75Z" stroke="#FFC000" stroke-width="1.33333" stroke-miterlimit="8" fill="#FFC000" fill-rule="evenodd"/><rect x="234.5" y="548.5" width="241" height="42" stroke="#9DC3E6" stroke-linejoin="round" stroke-miterlimit="10" fill="#9DC3E6"/><text font-family="Calibri,Calibri_MSFontService,sans-serif" font-weight="400" font-size="13.3333" transform="translate(256.817 565)">Adjustment of agent body mass and</text><text font-family="Calibri,Calibri_MSFontService,sans-serif" font-weight="400" font-size="13.3333" transform="translate(286.483 581)">potential mortality event</text><path d="M358.5 134.5 358.5 148.5 365.5 148.5 351.5 162.5 337.5 148.5 344.5 148.5 344.5 134.5Z" stroke="#9DC3E6" stroke-width="1.33333" stroke-miterlimit="8" fill="#9DC3E6" fill-rule="evenodd"/><path d="M358.25 224.5 358.25 240 365.5 240 351 254.5 336.5 240 343.75 240 343.75 224.5Z" stroke="#9DC3E6" stroke-width="1.33333" stroke-miterlimit="8" fill="#9DC3E6" fill-rule="evenodd"/><rect x="233.5" y="668.5" width="240" height="75" stroke="#70AD47" stroke-linejoin="round" stroke-miterlimit="10" fill="#70AD47"/><text fill="#FFFFFF" font-family="Calibri,Calibri_MSFontService,sans-serif" font-weight="400" font-size="13.3333" transform="translate(262.838 685)">Population</text><text fill="#FFFFFF" font-family="Calibri,Calibri_MSFontService,sans-serif" font-weight="400" font-size="13.3333" transform="translate(321.505 685)">-</text><text fill="#FFFFFF" font-family="Calibri,Calibri_MSFontService,sans-serif" font-weight="400" font-size="13.3333" transform="translate(325.505 685)">level estimate of non</text><text fill="#FFFFFF" font-family="Calibri,Calibri_MSFontService,sans-serif" font-weight="400" font-size="13.3333" transform="translate(439.338 685)">-</text><text fill="#FFFFFF" font-family="Calibri,Calibri_MSFontService,sans-serif" font-weight="400" font-size="13.3333" transform="translate(275.005 701)">breeding season survival and</text><text fill="#FFFFFF" font-family="Calibri,Calibri_MSFontService,sans-serif" font-weight="400" font-size="13.3333" transform="translate(251.091 717)">performance metrics (e.g. body mass,</text><text fill="#FFFFFF" font-family="Calibri,Calibri_MSFontService,sans-serif" font-weight="400" font-size="13.3333" transform="translate(297.925 733)">energy expenditure)</text><path d="M357.25 371.5 357.25 386 364.5 386 350 400.5 335.5 386 342.75 386 342.75 371.5Z" stroke="#9DC3E6" stroke-width="1.33333" stroke-miterlimit="8" fill="#9DC3E6" fill-rule="evenodd"/><path d="M356.25 513.5 356.25 527.5 363.5 527.5 349 541.5 334.5 527.5 341.75 527.5 341.75 513.5Z" stroke="#9DC3E6" stroke-width="1.33333" stroke-miterlimit="8" fill="#9DC3E6" fill-rule="evenodd"/><path d="M358.5 603.5 358.5 618.5 365.5 618.5 351.5 632.5 337.5 618.5 344.5 618.5 344.5 603.5Z" stroke="#70AD47" stroke-width="1.33333" stroke-miterlimit="8" fill="#70AD47" fill-rule="evenodd"/><rect x="543" y="755" width="163" height="90" fill="#FFC000"/><text font-family="Calibri,Calibri_MSFontService,sans-serif" font-weight="400" font-size="13.3333" transform="translate(552.957 772)">Demography</text><path d="M552.957 772.754 587.957 772.754 622.957 772.754 622.957 773.754 587.957 773.754 552.957 773.754Z" fill-rule="evenodd"/><text font-family="Arial,Arial_MSFontService,sans-serif" font-weight="400" font-size="13.3333" transform="translate(552.957 788)">•</text><text font-family="Calibri,Calibri_MSFontService,sans-serif" font-weight="400" font-size="13.3333" transform="translate(570.957 788)">Relationship between</text><text font-family="Calibri,Calibri_MSFontService,sans-serif" font-weight="400" font-size="13.3333" transform="translate(570.957 804)">end of winter body</text><text font-family="Calibri,Calibri_MSFontService,sans-serif" font-weight="400" font-size="13.3333" transform="translate(570.957 820)">mass and subsequent</text><text font-family="Calibri,Calibri_MSFontService,sans-serif" font-weight="400" font-size="13.3333" transform="translate(570.957 836)">breeding success</text><rect x="232" y="89" width="241" height="42" fill="#9DC3E6"/><text font-family="Calibri,Calibri_MSFontService,sans-serif" font-weight="400" font-size="13.3333" transform="translate(259.427 106)">Location of individual agents (non</text><text font-family="Calibri,Calibri_MSFontService,sans-serif" font-weight="400" font-size="13.3333" transform="translate(441.927 106)">-</text><text font-family="Calibri,Calibri_MSFontService,sans-serif" font-weight="400" font-size="13.3333" transform="translate(302.513 122)">breeding seabirds)</text><path d="M531.5 118.25 517 118.25 517 125.5 502.5 111 517 96.5001 517 103.75 531.5 103.75Z" stroke="#FFC000" stroke-width="1.33333" stroke-miterlimit="8" fill="#FFC000" fill-rule="evenodd"/><rect x="542" y="399" width="163" height="75" fill="#FFC000"/><text font-family="Calibri,Calibri_MSFontService,sans-serif" font-weight="400" font-size="13.3333" transform="translate(551.492 416)">Time Energy Budget</text><path d="M551.492 417.26 578.742 417.26 605.992 417.26 633.242 417.26 660.492 417.26 660.492 418.26 633.242 418.26 605.992 418.26 578.742 418.26 551.492 418.26Z" fill-rule="evenodd"/><text font-family="Arial,Arial_MSFontService,sans-serif" font-weight="400" font-size="13.3333" transform="translate(551.492 432)">•</text><text font-family="Calibri,Calibri_MSFontService,sans-serif" font-weight="400" font-size="13.3333" transform="translate(569.492 432)">Initial time budgets</text><text font-family="Arial,Arial_MSFontService,sans-serif" font-weight="400" font-size="13.3333" transform="translate(551.492 448)">•</text><text font-family="Calibri,Calibri_MSFontService,sans-serif" font-weight="400" font-size="13.3333" transform="translate(569.492 448)">Activity</text><text font-family="Calibri,Calibri_MSFontService,sans-serif" font-weight="400" font-size="13.3333" transform="translate(609.826 448)">-</text><text font-family="Calibri,Calibri_MSFontService,sans-serif" font-weight="400" font-size="13.3333" transform="translate(613.826 448)">specific</text><text font-family="Calibri,Calibri_MSFontService,sans-serif" font-weight="400" font-size="13.3333" transform="translate(569.492 464)">energetic costs</text><rect x="543" y="540" width="163" height="58" fill="#FFC000"/><text font-family="Calibri,Calibri_MSFontService,sans-serif" font-weight="400" font-size="13.3333" transform="translate(552.325 556)">Body Mass</text><path d="M552.325 557.306 581.325 557.306 610.325 557.306 610.325 558.306 581.325 558.306 552.325 558.306Z" fill-rule="evenodd"/><text font-family="Arial,Arial_MSFontService,sans-serif" font-weight="400" font-size="13.3333" transform="translate(552.325 572)">•</text><text font-family="Calibri,Calibri_MSFontService,sans-serif" font-weight="400" font-size="13.3333" transform="translate(570.325 572)">Initial body mass</text><text font-family="Arial,Arial_MSFontService,sans-serif" font-weight="400" font-size="13.3333" transform="translate(552.325 588)">•</text><text font-family="Calibri,Calibri_MSFontService,sans-serif" font-weight="400" font-size="13.3333" transform="translate(570.325 588)">Mortality threshold</text><rect x="17" y="443" width="163" height="58" fill="#7030A0"/><text fill="#FFFFFF" font-family="Calibri,Calibri_MSFontService,sans-serif" font-weight="400" font-size="13.3333" transform="translate(26.9029 460)">Environment</text><path d="M26.9029 461.051 61.9029 461.051 96.9029 461.051 96.9029 462.051 61.9029 462.051 26.9029 462.051Z" fill="#FFFFFF" fill-rule="evenodd"/><text fill="#FFFFFF" font-family="Arial,Arial_MSFontService,sans-serif" font-weight="400" font-size="13.3333" transform="translate(26.9029 476)">•</text><text fill="#FFFFFF" font-family="Calibri,Calibri_MSFontService,sans-serif" font-weight="400" font-size="13.3333" transform="translate(44.9029 476)">Sea Temperature</text><text fill="#FFFFFF" font-family="Arial,Arial_MSFontService,sans-serif" font-weight="400" font-size="13.3333" transform="translate(26.9029 492)">•</text><text fill="#FFFFFF" font-family="Calibri,Calibri_MSFontService,sans-serif" font-weight="400" font-size="13.3333" transform="translate(44.9029 492)">Daylength</text><path d="M187.5 465.75 201 465.75 201 458.5 214.5 473 201 487.5 201 480.25 187.5 480.25Z" stroke="#7030A0" stroke-width="1.33333" stroke-miterlimit="8" fill="#7030A0" fill-rule="evenodd"/><rect x="48.5001" y="538.5" width="118" height="58" stroke="#000000" stroke-linejoin="round" stroke-miterlimit="10" fill="#FFFFFF"/><text font-family="Calibri,Calibri_MSFontService,sans-serif" font-weight="400" font-size="13.3333" transform="translate(64.3635 555)">Repeat for each</text><text font-family="Calibri,Calibri_MSFontService,sans-serif" font-weight="400" font-size="13.3333" transform="translate(76.5301 571)">day of non</text><text font-family="Calibri,Calibri_MSFontService,sans-serif" font-weight="400" font-size="13.3333" transform="translate(133.863 571)">-</text><text font-family="Calibri,Calibri_MSFontService,sans-serif" font-weight="400" font-size="13.3333" transform="translate(62.8635 587)">breeding season</text><rect x="233.5" y="779.5" width="240" height="42" stroke="#70AD47" stroke-linejoin="round" stroke-miterlimit="10" fill="#70AD47"/><text fill="#FFFFFF" font-family="Calibri,Calibri_MSFontService,sans-serif" font-weight="400" font-size="13.3333" transform="translate(248.091 796)">Consequences for population breeding</text><text fill="#FFFFFF" font-family="Calibri,Calibri_MSFontService,sans-serif" font-weight="400" font-size="13.3333" transform="translate(279.758 812)">success in following season</text><path d="M531.5 329.25 517 329.25 517 336.5 502.5 322 517 307.5 517 314.75 531.5 314.75Z" stroke="#FFC000" stroke-width="1.33333" stroke-miterlimit="8" fill="#FFC000" fill-rule="evenodd"/><path d="M534.5 448.5 519.5 448.5 519.5 455.5 505.5 441.5 519.5 427.5 519.5 434.5 534.5 434.5Z" stroke="#FFC000" stroke-width="1.33333" stroke-miterlimit="8" fill="#FFC000" fill-rule="evenodd"/><path d="M533.5 809.25 519 809.25 519 816.5 504.5 802 519 787.5 519 794.75 533.5 794.75Z" stroke="#FFC000" stroke-width="1.33333" stroke-miterlimit="8" fill="#FFC000" fill-rule="evenodd"/><path d="M531.5 575.25 517 575.25 517 582.5 502.5 568 517 553.5 517 560.75 531.5 560.75Z" stroke="#FFC000" stroke-width="1.33333" stroke-miterlimit="8" fill="#FFC000" fill-rule="evenodd"/><path d="M360.5 747.5 360.5 762.5 367.5 762.5 353.5 776.5 339.5 762.5 346.5 762.5 346.5 747.5Z" stroke="#70AD47" stroke-width="1.33333" stroke-miterlimit="8" fill="#70AD47" fill-rule="evenodd"/><rect x="543" y="478" width="163" height="58" stroke="#C00000" stroke-width="3.66667" stroke-linejoin="round" stroke-miterlimit="10" fill="#FFC000"/><text font-family="Calibri,Calibri_MSFontService,sans-serif" font-weight="400" font-size="13.3333" transform="translate(552.349 495)">Disturbance</text><path d="M552.349 495.545 584.849 495.545 617.349 495.545 617.349 496.545 584.849 496.545 552.349 496.545Z" fill-rule="evenodd"/><text font-family="Arial,Arial_MSFontService,sans-serif" font-weight="400" font-size="13.3333" transform="translate(552.349 511)">•</text><text font-family="Calibri,Calibri_MSFontService,sans-serif" font-weight="400" font-size="13.3333" transform="translate(570.349 511)">Influence on time</text><text font-family="Calibri,Calibri_MSFontService,sans-serif" font-weight="400" font-size="13.3333" transform="translate(570.349 527)">budget</text><path d="M531.5 516.5 516.5 516.5 516.5 523.5 502.5 509.5 516.5 495.5 516.5 502.5 531.5 502.5Z" stroke="#FFC000" stroke-width="1.33333" stroke-miterlimit="8" fill="#FFC000" fill-rule="evenodd"/><rect x="224.5" y="49.5001" width="259" height="172" stroke="#2F528F" stroke-width="1.33333" stroke-miterlimit="8" fill="none"/><rect x="224.5" y="257.5" width="259" height="105" stroke="#2F528F" stroke-width="1.33333" stroke-miterlimit="8" fill="none"/><text font-family="Calibri,Calibri_MSFontService,sans-serif" font-weight="700" font-size="16" transform="translate(276.282 69)">Distribution sub</text><text font-family="Calibri,Calibri_MSFontService,sans-serif" font-weight="700" font-size="16" transform="translate(383.268 69)">-</text><text font-family="Calibri,Calibri_MSFontService,sans-serif" font-weight="700" font-size="16" transform="translate(388.102 69)">model</text><text font-family="Calibri,Calibri_MSFontService,sans-serif" font-weight="700" font-size="16" transform="translate(289.199 281)">Foraging sub</text><text font-family="Calibri,Calibri_MSFontService,sans-serif" font-weight="700" font-size="16" transform="translate(373.485 281)">-</text><text font-family="Calibri,Calibri_MSFontService,sans-serif" font-weight="700" font-size="16" transform="translate(378.319 281)">model</text><rect x="225.5" y="406.5" width="259" height="192" stroke="#2F528F" stroke-width="1.33333" stroke-miterlimit="8" fill="none"/><text font-family="Calibri,Calibri_MSFontService,sans-serif" font-weight="700" font-size="16" transform="translate(257.729 428)">Energetics &amp; mass sub</text><text font-family="Calibri,Calibri_MSFontService,sans-serif" font-weight="700" font-size="16" transform="translate(405.096 428)">-</text><text font-family="Calibri,Calibri_MSFontService,sans-serif" font-weight="700" font-size="16" transform="translate(409.929 428)">model</text><rect x="225.5" y="639.5" width="260" height="191" stroke="#2F528F" stroke-width="1.33333" stroke-miterlimit="8" fill="none"/><text font-family="Calibri,Calibri_MSFontService,sans-serif" font-weight="700" font-size="16" transform="translate(276.108 660)">Demography sub</text><text font-family="Calibri,Calibri_MSFontService,sans-serif" font-weight="700" font-size="16" transform="translate(388.634 660)">-</text><text font-family="Calibri,Calibri_MSFontService,sans-serif" font-weight="700" font-size="16" transform="translate(393.468 660)">model</text><path d="M225.5 577.25 181 577.25 181 584.5 166.5 570 181 555.5 181 562.75 225.5 562.75Z" stroke="#9DC3E6" stroke-width="1.33333" stroke-miterlimit="8" fill="#9DC3E6" fill-rule="evenodd"/><path d="M0 7 101 7 101 0 115 14 101 28 101 21 0 21Z" stroke="#9DC3E6" stroke-width="1.33333" stroke-miterlimit="8" fill="#9DC3E6" fill-rule="evenodd" transform="matrix(1 0 0 -1 109.5 121.5)"/></g></svg>