<svg width="2369" height="2748" xmlns="http://www.w3.org/2000/svg" xmlns:xlink="http://www.w3.org/1999/xlink" xml:space="preserve" overflow="hidden"><g transform="translate(-59 -167)"><path d="M0 24.7508 1496.5 24.7508 1496.5 0 1546 49.5 1496.5 99 1496.5 74.2508 0 74.2508Z" stroke="#9DC3E6" stroke-width="4.58333" stroke-miterlimit="8" fill="#9DC3E6" fill-rule="evenodd" transform="matrix(-6.12323e-17 -1 -1 6.12323e-17 397.5 1926.5)"/><rect x="1864" y="307" width="562" height="145" fill="#FFC000"/><text font-family="Calibri,Calibri_MSFontService,sans-serif" font-weight="400" font-size="46" text-decoration="underline" transform="matrix(1 0 0 1 1896.91 367)">Distribution</text><text font-family="Arial,Arial_MSFontService,sans-serif" font-weight="400" font-size="46" transform="matrix(1 0 0 1 1896.91 422)">•</text><text font-family="Calibri,Calibri_MSFontService,sans-serif" font-weight="400" font-size="46" transform="matrix(1 0 0 1 1958.78 422)">Density distribution</text><rect x="59.0001" y="569" width="559" height="200" fill="#C00000"/><text fill="#FFFFFF" font-family="Calibri,Calibri_MSFontService,sans-serif" font-weight="400" font-size="46" text-decoration="underline" transform="matrix(1 0 0 1 92.4787 628)">OWF Characteristics</text><text fill="#FFFFFF" font-family="Arial,Arial_MSFontService,sans-serif" font-weight="400" font-size="46" transform="matrix(1 0 0 1 92.4787 683)">•</text><text fill="#FFFFFF" font-family="Calibri,Calibri_MSFontService,sans-serif" font-weight="400" font-size="46" transform="matrix(1 0 0 1 154.354 683)">Footprint</text><text fill="#FFFFFF" font-family="Arial,Arial_MSFontService,sans-serif" font-weight="400" font-size="46" transform="matrix(1 0 0 1 92.4787 738)">•</text><text fill="#FFFFFF" font-family="Calibri,Calibri_MSFontService,sans-serif" font-weight="400" font-size="46" transform="matrix(1 0 0 1 154.354 738)">Turbine height</text><rect x="795" y="569" width="827" height="145" fill="#9DC3E6"/><text font-family="Calibri,Calibri_MSFontService,sans-serif" font-weight="400" font-size="46" transform="matrix(1 0 0 1 871.107 629)">Revised location of individual agents </text><text font-family="Calibri,Calibri_MSFontService,sans-serif" font-weight="400" font-size="46" transform="matrix(1 0 0 1 1033.81 684)">after displacement</text><rect x="1863" y="493" width="560" height="311" fill="#FFC000"/><text font-family="Calibri,Calibri_MSFontService,sans-serif" font-weight="400" font-size="46" text-decoration="underline" transform="matrix(1 0 0 1 1895.88 552)">Redistribution</text><text font-family="Arial,Arial_MSFontService,sans-serif" font-weight="400" font-size="46" transform="matrix(1 0 0 1 1895.88 607)">•</text><text font-family="Calibri,Calibri_MSFontService,sans-serif" font-weight="400" font-size="46" transform="matrix(1 0 0 1 1957.75 607)">Displacement rates</text><text font-family="Arial,Arial_MSFontService,sans-serif" font-weight="400" font-size="46" transform="matrix(1 0 0 1 1895.88 662)">•</text><text font-family="Calibri,Calibri_MSFontService,sans-serif" font-weight="400" font-size="46" transform="matrix(1 0 0 1 1957.75 662)">Attraction</text><text font-family="Arial,Arial_MSFontService,sans-serif" font-weight="400" font-size="46" transform="matrix(1 0 0 1 1895.88 717)">•</text><text font-family="Calibri,Calibri_MSFontService,sans-serif" font-weight="400" font-size="46" transform="matrix(1 0 0 1 1957.75 717)">Redistribution </text><text font-family="Calibri,Calibri_MSFontService,sans-serif" font-weight="400" font-size="46" transform="matrix(1 0 0 1 1957.75 772)">characteristics</text><rect x="795.5" y="1006.5" width="826" height="200" stroke="#9DC3E6" stroke-width="3.4375" stroke-linejoin="round" stroke-miterlimit="10" fill="#9DC3E6"/><text font-family="Calibri,Calibri_MSFontService,sans-serif" font-weight="400" font-size="46" transform="matrix(1 0 0 1 845.596 1066)">Revised foraging success rate of agents </text><text font-family="Calibri,Calibri_MSFontService,sans-serif" font-weight="400" font-size="46" transform="matrix(1 0 0 1 865.35 1121)">based on revised density distribution </text><text font-family="Calibri,Calibri_MSFontService,sans-serif" font-weight="400" font-size="46" transform="matrix(1 0 0 1 987.381 1176)">following displacement</text><rect x="1865" y="1013" width="560" height="200" fill="#FFC000"/><text font-family="Calibri,Calibri_MSFontService,sans-serif" font-weight="400" font-size="46" text-decoration="underline" transform="matrix(1 0 0 1 1898.4 1073)">Foraging</text><text font-family="Arial,Arial_MSFontService,sans-serif" font-weight="400" font-size="46" transform="matrix(1 0 0 1 1898.4 1128)">•</text><text font-family="Calibri,Calibri_MSFontService,sans-serif" font-weight="400" font-size="46" transform="matrix(1 0 0 1 1960.28 1128)">Success rate</text><text font-family="Arial,Arial_MSFontService,sans-serif" font-weight="400" font-size="46" transform="matrix(1 0 0 1 1898.4 1183)">•</text><text font-family="Calibri,Calibri_MSFontService,sans-serif" font-weight="400" font-size="46" transform="matrix(1 0 0 1 1960.28 1183)">Conspecific influence</text><rect x="800" y="1496" width="827" height="256" fill="#9DC3E6"/><text font-family="Calibri,Calibri_MSFontService,sans-serif" font-weight="400" font-size="46" transform="matrix(1 0 0 1 889.48 1556)">Optimisation of agent time</text><text font-family="Calibri,Calibri_MSFontService,sans-serif" font-weight="400" font-size="46" transform="matrix(1 0 0 1 1390.21 1556)">-</text><text font-family="Calibri,Calibri_MSFontService,sans-serif" font-weight="400" font-size="46" transform="matrix(1 0 0 1 1403.96 1556)">activity </text><text font-family="Calibri,Calibri_MSFontService,sans-serif" font-weight="400" font-size="46" transform="matrix(1 0 0 1 879.74 1611)">budgets to maintain energy balance </text><text font-family="Calibri,Calibri_MSFontService,sans-serif" font-weight="400" font-size="46" transform="matrix(1 0 0 1 888.036 1666)">under constraints (e.g., day</text><text font-family="Calibri,Calibri_MSFontService,sans-serif" font-weight="400" font-size="46" transform="matrix(1 0 0 1 1395.64 1666)">-</text><text font-family="Calibri,Calibri_MSFontService,sans-serif" font-weight="400" font-size="46" transform="matrix(1 0 0 1 1409.39 1666)">length, </text><text font-family="Calibri,Calibri_MSFontService,sans-serif" font-weight="400" font-size="46" transform="matrix(1 0 0 1 1066.51 1721)">energetic costs)</text><path d="M641.5 647.25 693 647.25 693 622.5 742.5 672 693 721.5 693 696.75 641.5 696.75Z" stroke="#C00000" stroke-width="4.58333" stroke-miterlimit="8" fill="#C00000" fill-rule="evenodd"/><path d="M1832.5 666.75 1782 666.75 1782 691.5 1732.5 642 1782 592.5 1782 617.25 1832.5 617.25Z" stroke="#FFC000" stroke-width="4.58333" stroke-miterlimit="8" fill="#FFC000" fill-rule="evenodd"/><rect x="804.5" y="1883.5" width="827" height="145" stroke="#9DC3E6" stroke-width="3.4375" stroke-linejoin="round" stroke-miterlimit="10" fill="#9DC3E6"/><text font-family="Calibri,Calibri_MSFontService,sans-serif" font-weight="400" font-size="46" transform="matrix(1 0 0 1 882.807 1943)">Adjustment of agent body mass and </text><text font-family="Calibri,Calibri_MSFontService,sans-serif" font-weight="400" font-size="46" transform="matrix(1 0 0 1 984.787 1998)">potential mortality event</text><path d="M1231.25 461.5 1231.25 510 1255.5 510 1207 558.5 1158.5 510 1182.75 510 1182.75 461.5Z" stroke="#9DC3E6" stroke-width="4.58333" stroke-miterlimit="8" fill="#9DC3E6" fill-rule="evenodd"/><path d="M1231 771.5 1231 823.5 1255.5 823.5 1206.5 872.5 1157.5 823.5 1182 823.5 1182 771.5Z" stroke="#9DC3E6" stroke-width="4.58333" stroke-miterlimit="8" fill="#9DC3E6" fill-rule="evenodd"/><rect x="800.5" y="2298.5" width="827" height="255" stroke="#70AD47" stroke-width="3.4375" stroke-linejoin="round" stroke-miterlimit="10" fill="#70AD47"/><text fill="#FFFFFF" font-family="Calibri,Calibri_MSFontService,sans-serif" font-weight="400" font-size="46" transform="matrix(1 0 0 1 903.505 2357)">Population</text><text fill="#FFFFFF" font-family="Calibri,Calibri_MSFontService,sans-serif" font-weight="400" font-size="46" transform="matrix(1 0 0 1 1105.17 2357)">-</text><text fill="#FFFFFF" font-family="Calibri,Calibri_MSFontService,sans-serif" font-weight="400" font-size="46" transform="matrix(1 0 0 1 1118.92 2357)">level estimate of non</text><text fill="#FFFFFF" font-family="Calibri,Calibri_MSFontService,sans-serif" font-weight="400" font-size="46" transform="matrix(1 0 0 1 1510.22 2357)">-</text><text fill="#FFFFFF" font-family="Calibri,Calibri_MSFontService,sans-serif" font-weight="400" font-size="46" transform="matrix(1 0 0 1 945.328 2412)">breeding season survival and </text><text fill="#FFFFFF" font-family="Calibri,Calibri_MSFontService,sans-serif" font-weight="400" font-size="46" transform="matrix(1 0 0 1 863.126 2467)">performance metrics (e.g. body mass, </text><text fill="#FFFFFF" font-family="Calibri,Calibri_MSFontService,sans-serif" font-weight="400" font-size="46" transform="matrix(1 0 0 1 1024.12 2522)">energy expenditure)</text><path d="M1226 1276.5 1226 1327.5 1250.5 1327.5 1201.5 1376.5 1152.5 1327.5 1177 1327.5 1177 1276.5Z" stroke="#9DC3E6" stroke-width="4.58333" stroke-miterlimit="8" fill="#9DC3E6" fill-rule="evenodd"/><path d="M1221.75 1762.5 1221.75 1811.5 1246.5 1811.5 1197 1860.5 1147.5 1811.5 1172.25 1811.5 1172.25 1762.5Z" stroke="#9DC3E6" stroke-width="4.58333" stroke-miterlimit="8" fill="#9DC3E6" fill-rule="evenodd"/><path d="M1231.75 2071.5 1231.75 2124 1255.5 2124 1208 2171.5 1160.5 2124 1184.25 2124 1184.25 2071.5Z" stroke="#70AD47" stroke-width="4.58333" stroke-miterlimit="8" fill="#70AD47" fill-rule="evenodd"/><rect x="1868" y="2595" width="560" height="311" fill="#FFC000"/><text font-family="Calibri,Calibri_MSFontService,sans-serif" font-weight="400" font-size="46" text-decoration="underline" transform="matrix(1 0 0 1 1900.79 2655)">Demography</text><text font-family="Arial,Arial_MSFontService,sans-serif" font-weight="400" font-size="46" transform="matrix(1 0 0 1 1900.79 2710)">•</text><text font-family="Calibri,Calibri_MSFontService,sans-serif" font-weight="400" font-size="46" transform="matrix(1 0 0 1 1962.66 2710)">Relationship between </text><text font-family="Calibri,Calibri_MSFontService,sans-serif" font-weight="400" font-size="46" transform="matrix(1 0 0 1 1962.66 2765)">end of winter body </text><text font-family="Calibri,Calibri_MSFontService,sans-serif" font-weight="400" font-size="46" transform="matrix(1 0 0 1 1962.66 2820)">mass and subsequent </text><text font-family="Calibri,Calibri_MSFontService,sans-serif" font-weight="400" font-size="46" transform="matrix(1 0 0 1 1962.66 2875)">breeding success</text><rect x="798" y="307" width="828" height="145" fill="#9DC3E6"/><text font-family="Calibri,Calibri_MSFontService,sans-serif" font-weight="400" font-size="46" transform="matrix(1 0 0 1 891.779 367)">Location of individual agents (non</text><text font-family="Calibri,Calibri_MSFontService,sans-serif" font-weight="400" font-size="46" transform="matrix(1 0 0 1 1519.12 367)">-</text><text font-family="Calibri,Calibri_MSFontService,sans-serif" font-weight="400" font-size="46" transform="matrix(1 0 0 1 1039.89 422)">breeding seabirds)</text><path d="M1826.5 404.75 1776 404.75 1776 429.5 1726.5 380 1776 330.5 1776 355.25 1826.5 355.25Z" stroke="#FFC000" stroke-width="4.58333" stroke-miterlimit="8" fill="#FFC000" fill-rule="evenodd"/><rect x="1863" y="1373" width="560" height="256" fill="#FFC000"/><text font-family="Calibri,Calibri_MSFontService,sans-serif" font-weight="400" font-size="46" text-decoration="underline" transform="matrix(1 0 0 1 1895.76 1433)">Time Energy Budget</text><text font-family="Arial,Arial_MSFontService,sans-serif" font-weight="400" font-size="46" transform="matrix(1 0 0 1 1895.76 1488)">•</text><text font-family="Calibri,Calibri_MSFontService,sans-serif" font-weight="400" font-size="46" transform="matrix(1 0 0 1 1957.63 1488)">Initial time budgets</text><text font-family="Arial,Arial_MSFontService,sans-serif" font-weight="400" font-size="46" transform="matrix(1 0 0 1 1895.76 1543)">•</text><text font-family="Calibri,Calibri_MSFontService,sans-serif" font-weight="400" font-size="46" transform="matrix(1 0 0 1 1957.63 1543)">Activity</text><text font-family="Calibri,Calibri_MSFontService,sans-serif" font-weight="400" font-size="46" transform="matrix(1 0 0 1 2096.28 1543)">-</text><text font-family="Calibri,Calibri_MSFontService,sans-serif" font-weight="400" font-size="46" transform="matrix(1 0 0 1 2110.03 1543)">specific </text><text font-family="Calibri,Calibri_MSFontService,sans-serif" font-weight="400" font-size="46" transform="matrix(1 0 0 1 1957.63 1598)">energetic costs</text><rect x="1866" y="1855" width="560" height="199" fill="#FFC000"/><text font-family="Calibri,Calibri_MSFontService,sans-serif" font-weight="400" font-size="46" text-decoration="underline" transform="matrix(1 0 0 1 1898.62 1914)">Body Mass</text><text font-family="Arial,Arial_MSFontService,sans-serif" font-weight="400" font-size="46" transform="matrix(1 0 0 1 1898.62 1969)">•</text><text font-family="Calibri,Calibri_MSFontService,sans-serif" font-weight="400" font-size="46" transform="matrix(1 0 0 1 1960.49 1969)">Initial body mass</text><text font-family="Arial,Arial_MSFontService,sans-serif" font-weight="400" font-size="46" transform="matrix(1 0 0 1 1898.62 2024)">•</text><text font-family="Calibri,Calibri_MSFontService,sans-serif" font-weight="400" font-size="46" transform="matrix(1 0 0 1 1960.49 2024)">Mortality threshold</text><rect x="59.0001" y="1524" width="558" height="200" fill="#7030A0"/><text fill="#FFFFFF" font-family="Calibri,Calibri_MSFontService,sans-serif" font-weight="400" font-size="46" text-decoration="underline" transform="matrix(1 0 0 1 92.4787 1583)">Environment</text><text fill="#FFFFFF" font-family="Arial,Arial_MSFontService,sans-serif" font-weight="400" font-size="46" transform="matrix(1 0 0 1 92.4787 1638)">•</text><text fill="#FFFFFF" font-family="Calibri,Calibri_MSFontService,sans-serif" font-weight="400" font-size="46" transform="matrix(1 0 0 1 154.354 1638)">Sea Temperature</text><text fill="#FFFFFF" font-family="Arial,Arial_MSFontService,sans-serif" font-weight="400" font-size="46" transform="matrix(1 0 0 1 92.4787 1693)">•</text><text fill="#FFFFFF" font-family="Calibri,Calibri_MSFontService,sans-serif" font-weight="400" font-size="46" transform="matrix(1 0 0 1 154.354 1693)">Daylength</text><path d="M641.5 1600 689.5 1600 689.5 1575.5 737.5 1624.5 689.5 1673.5 689.5 1649 641.5 1649Z" stroke="#7030A0" stroke-width="4.58333" stroke-miterlimit="8" fill="#7030A0" fill-rule="evenodd"/><rect x="166.5" y="1849.5" width="405" height="200" stroke="#000000" stroke-width="3.4375" stroke-linejoin="round" stroke-miterlimit="10" fill="#FFFFFF"/><text font-family="Calibri,Calibri_MSFontService,sans-serif" font-weight="400" font-size="46" transform="matrix(1 0 0 1 221.249 1909)">Repeat for each </text><text font-family="Calibri,Calibri_MSFontService,sans-serif" font-weight="400" font-size="46" transform="matrix(1 0 0 1 263.072 1964)">day of non</text><text font-family="Calibri,Calibri_MSFontService,sans-serif" font-weight="400" font-size="46" transform="matrix(1 0 0 1 460.156 1964)">-</text><text font-family="Calibri,Calibri_MSFontService,sans-serif" font-weight="400" font-size="46" transform="matrix(1 0 0 1 216.093 2019)">breeding season</text><rect x="800.5" y="2679.5" width="827" height="144" stroke="#70AD47" stroke-width="3.4375" stroke-linejoin="round" stroke-miterlimit="10" fill="#70AD47"/><text fill="#FFFFFF" font-family="Calibri,Calibri_MSFontService,sans-serif" font-weight="400" font-size="46" transform="matrix(1 0 0 1 852.813 2738)">Consequences for population breeding </text><text fill="#FFFFFF" font-family="Calibri,Calibri_MSFontService,sans-serif" font-weight="400" font-size="46" transform="matrix(1 0 0 1 961.667 2793)">success in following season</text><path d="M1826.5 1131 1775.5 1131 1775.5 1155.5 1726.5 1106.5 1775.5 1057.5 1775.5 1082 1826.5 1082Z" stroke="#FFC000" stroke-width="4.58333" stroke-miterlimit="8" fill="#FFC000" fill-rule="evenodd"/><path d="M1835.5 1541 1784.5 1541 1784.5 1565.5 1735.5 1516.5 1784.5 1467.5 1784.5 1492 1835.5 1492Z" stroke="#FFC000" stroke-width="4.58333" stroke-miterlimit="8" fill="#FFC000" fill-rule="evenodd"/><path d="M1831.5 2779.75 1781 2779.75 1781 2804.5 1731.5 2755 1781 2705.5 1781 2730.25 1831.5 2730.25Z" stroke="#FFC000" stroke-width="4.58333" stroke-miterlimit="8" fill="#FFC000" fill-rule="evenodd"/><path d="M1826.5 1975 1775.5 1975 1775.5 1999.5 1726.5 1950.5 1775.5 1901.5 1775.5 1926 1826.5 1926Z" stroke="#FFC000" stroke-width="4.58333" stroke-miterlimit="8" fill="#FFC000" fill-rule="evenodd"/><path d="M1236.75 2567.5 1236.75 2620 1260.5 2620 1213 2667.5 1165.5 2620 1189.25 2620 1189.25 2567.5Z" stroke="#70AD47" stroke-width="4.58333" stroke-miterlimit="8" fill="#70AD47" fill-rule="evenodd"/><rect x="1866" y="1642" width="560" height="200" fill="#FFC000"/><text font-family="Calibri,Calibri_MSFontService,sans-serif" font-weight="400" font-size="46" text-decoration="underline" transform="matrix(1 0 0 1 1898.7 1702)">Disturbance</text><text font-family="Arial,Arial_MSFontService,sans-serif" font-weight="400" font-size="46" transform="matrix(1 0 0 1 1898.7 1757)">•</text><text font-family="Calibri,Calibri_MSFontService,sans-serif" font-weight="400" font-size="46" transform="matrix(1 0 0 1 1960.58 1757)">Influence on time </text><text font-family="Calibri,Calibri_MSFontService,sans-serif" font-weight="400" font-size="46" transform="matrix(1 0 0 1 1960.58 1812)">budget</text><path d="M1826.5 1774 1776.5 1774 1776.5 1798.5 1727.5 1749.5 1776.5 1700.5 1776.5 1725 1826.5 1725Z" stroke="#FFC000" stroke-width="4.58333" stroke-miterlimit="8" fill="#FFC000" fill-rule="evenodd"/><rect x="769.5" y="169.5" width="891" height="591" stroke="#2F528F" stroke-width="4.58333" stroke-miterlimit="8" fill="none"/><rect x="769.5" y="882.5" width="891" height="364" stroke="#2F528F" stroke-width="4.58333" stroke-miterlimit="8" fill="none"/><text font-family="Calibri,Calibri_MSFontService,sans-serif" font-weight="700" font-size="55" transform="matrix(1 0 0 1 949.719 237)">Distribution sub</text><text font-family="Calibri,Calibri_MSFontService,sans-serif" font-weight="700" font-size="55" transform="matrix(1 0 0 1 1317.49 237)">-</text><text font-family="Calibri,Calibri_MSFontService,sans-serif" font-weight="700" font-size="55" transform="matrix(1 0 0 1 1334.1 237)">model</text><text font-family="Calibri,Calibri_MSFontService,sans-serif" font-weight="700" font-size="55" transform="matrix(1 0 0 1 994.12 965)">Foraging sub</text><text font-family="Calibri,Calibri_MSFontService,sans-serif" font-weight="700" font-size="55" transform="matrix(1 0 0 1 1283.86 965)">-</text><text font-family="Calibri,Calibri_MSFontService,sans-serif" font-weight="700" font-size="55" transform="matrix(1 0 0 1 1300.47 965)">model</text><rect x="773.5" y="1396.5" width="890" height="659" stroke="#2F528F" stroke-width="4.58333" stroke-miterlimit="8" fill="none"/><text font-family="Calibri,Calibri_MSFontService,sans-serif" font-weight="700" font-size="55" transform="matrix(1 0 0 1 885.945 1469)">Energetics &amp; mass sub</text><text font-family="Calibri,Calibri_MSFontService,sans-serif" font-weight="700" font-size="55" transform="matrix(1 0 0 1 1392.52 1469)">-</text><text font-family="Calibri,Calibri_MSFontService,sans-serif" font-weight="700" font-size="55" transform="matrix(1 0 0 1 1409.13 1469)">model</text><rect x="775.5" y="2196.5" width="891" height="656" stroke="#2F528F" stroke-width="4.58333" stroke-miterlimit="8" fill="none"/><text font-family="Calibri,Calibri_MSFontService,sans-serif" font-weight="700" font-size="55" transform="matrix(1 0 0 1 949.12 2267)">Demography sub</text><text font-family="Calibri,Calibri_MSFontService,sans-serif" font-weight="700" font-size="55" transform="matrix(1 0 0 1 1335.93 2267)">-</text><text font-family="Calibri,Calibri_MSFontService,sans-serif" font-weight="700" font-size="55" transform="matrix(1 0 0 1 1352.55 2267)">model</text><path d="M772.5 1983.75 621 1983.75 621 2008.5 571.5 1959 621 1909.5 621 1934.25 772.5 1934.25Z" stroke="#9DC3E6" stroke-width="4.58333" stroke-miterlimit="8" fill="#9DC3E6" fill-rule="evenodd"/><path d="M0 24.75 346.5 24.75 346.5 0 396 49.5 346.5 98.9996 346.5 74.2496 0 74.2496Z" stroke="#9DC3E6" stroke-width="4.58333" stroke-miterlimit="8" fill="#9DC3E6" fill-rule="evenodd" transform="matrix(1 0 0 -1 374.5 417.5)"/></g></svg>